<svg width="22" height="28" viewBox="0 0 22 28" fill="none" xmlns="http://www.w3.org/2000/svg">
<path d="M11.3121 0.000244141C10.1465 0.000244141 9.02872 0.461176 8.20454 1.28164C7.38036 2.1021 6.91734 3.21489 6.91734 4.3752V4.4522C5.08115 5.29025 3.52527 6.63549 2.4346 8.32803C1.34392 10.0206 0.764311 11.9892 0.764649 14.0001V22.75C0.764649 24.1424 1.32027 25.4777 2.30929 26.4623C3.29831 27.4469 4.6397 28 6.03838 28H11.7639C11.3162 27.4602 10.9289 26.8734 10.6089 26.25H6.03838C5.10593 26.25 4.21166 25.8812 3.55232 25.2249C2.89297 24.5685 2.52256 23.6783 2.52256 22.75V19.2501H6.03838V21.875C6.03838 22.1071 6.13098 22.3296 6.29582 22.4937C6.46066 22.6578 6.68422 22.75 6.91734 22.75C7.15045 22.75 7.37401 22.6578 7.53885 22.4937C7.70369 22.3296 7.79629 22.1071 7.79629 21.875V19.2501H9.91809C10.0921 18.6393 10.3224 18.0548 10.6089 17.5001H2.52256V14.0001C2.52041 11.8279 3.32996 9.73263 4.79374 8.12174C6.25751 6.51085 8.27085 5.49955 10.4421 5.28456C12.6134 5.06956 14.7875 5.66624 16.5413 6.95854C18.2951 8.25083 19.5034 10.1463 19.9311 12.2764C20.5605 12.3201 21.174 12.4269 21.7646 12.5861C21.5247 10.8322 20.8436 9.16704 19.7846 7.7451C18.7256 6.32315 17.323 5.1905 15.7069 4.4522V4.3752C15.7069 3.21489 15.2439 2.1021 14.4197 1.28164C13.5955 0.461176 12.4777 0.000244141 11.3121 0.000244141ZM11.3121 3.50021C10.4226 3.50021 9.55948 3.61046 8.73502 3.81521C8.86254 3.22914 9.18779 2.70421 9.65666 2.32774C10.1255 1.95127 10.7097 1.74596 11.3121 1.74596C11.9145 1.74596 12.4987 1.95127 12.9676 2.32774C13.4364 2.70421 13.7617 3.22914 13.8892 3.81521C13.063 3.61046 12.2016 3.50021 11.3121 3.50021Z" fill="#222222"/>
<path d="M13.6623 14.0001C14.4918 13.4183 15.4084 12.9706 16.3782 12.6736C16.5118 12.3848 16.5857 12.0628 16.5857 11.7251C16.5857 10.9361 16.2708 10.1794 15.7104 9.62147C15.1499 9.06356 14.3898 8.75012 13.5972 8.75012H9.02666C8.23407 8.75012 7.47395 9.06356 6.9135 9.62147C6.35306 10.1794 6.03821 10.9361 6.03821 11.7251C6.03821 12.0239 6.09732 12.3197 6.21216 12.5957C6.32701 12.8717 6.49534 13.1225 6.70755 13.3338C6.91976 13.545 7.17169 13.7126 7.44895 13.8269C7.72622 13.9412 8.02338 14.0001 8.32349 14.0001H13.6623ZM7.79612 11.7251C7.79612 11.4002 7.92576 11.0886 8.15654 10.8589C8.38731 10.6292 8.7003 10.5001 9.02666 10.5001H13.5972C13.9236 10.5001 14.2366 10.6292 14.4673 10.8589C14.6981 11.0886 14.8278 11.4002 14.8278 11.7251C14.8278 11.8643 14.7722 11.9979 14.6733 12.0963C14.5744 12.1948 14.4403 12.2501 14.3004 12.2501H8.32349C8.18362 12.2501 8.04948 12.1948 7.95058 12.0963C7.85168 11.9979 7.79612 11.8643 7.79612 11.7251Z" fill="#222222"/>
</svg>
