<svg width="24" height="24" viewBox="0 0 24 24" fill="none" xmlns="http://www.w3.org/2000/svg">
<path d="M12 0C5.37266 0 0 5.37266 0 12C0 18.6273 5.37266 24 12 24C18.6273 24 24 18.6273 24 12C23.9926 5.37578 18.6242 0.0074219 12 0ZM21.2932 5.75605L20.4615 9.29121L16.0801 10.7516L12.4 7.80801V3.4707L16.6 1.79082C18.5016 2.65234 20.1262 4.025 21.2932 5.75605ZM21.36 18.1381L17.3932 18.7645L15.2332 15.9111L16.3336 11.5111L20.6664 10.0672L23.1484 13.0455C22.9793 14.8641 22.365 16.6131 21.36 18.1381ZM6.62441 18.7672L2.64004 18.1381C1.63496 16.6127 1.0209 14.8633 0.851953 13.0443L3.33203 10.066L7.66484 11.51L8.76523 15.9123L6.62441 18.7672ZM0.803516 11.8508C0.824805 10.0664 1.275 8.31309 2.11602 6.73926L2.76484 9.49922L0.803516 11.8508ZM9.51231 15.6L8.45117 11.3512L12 8.51231L15.5496 11.3523L14.4877 15.6H9.51231ZM21.2352 9.49766L21.884 6.7377C22.725 8.31152 23.1752 10.0646 23.1965 11.8492L21.2352 9.49766ZM15.5092 1.36602L12 2.76953L8.47207 1.37246C10.7557 0.611328 13.2242 0.60918 15.5092 1.36602ZM7.38086 1.8L11.6 3.47207V7.80801L7.91992 10.7516L3.53848 9.29121L2.70684 5.75605C3.86992 4.03125 5.4875 2.66211 7.38086 1.8ZM3.3084 19.0535L6.55996 19.5672L8.52637 22.6473C6.47832 21.9746 4.66699 20.7271 3.3084 19.0535ZM9.67324 22.9553L7.28633 19.2184L9.4 16.4H14.6L16.7439 19.232L14.6641 22.8771C13.0279 23.2801 11.3219 23.3074 9.67363 22.9572L9.67324 22.9553ZM15.7752 22.5436L17.4801 19.56L20.6932 19.0531C19.4023 20.6428 17.7018 21.8496 15.7752 22.5436Z" fill="#222222"/>
</svg>
