<svg width="26" height="26" viewBox="0 0 26 26" fill="none" xmlns="http://www.w3.org/2000/svg">
<path fill-rule="evenodd" clip-rule="evenodd" d="M13 25.5C19.9036 25.5 25.5 19.9036 25.5 13C25.5 6.09644 19.9036 0.5 13 0.5C6.09644 0.5 0.5 6.09644 0.5 13C0.5 19.9036 6.09644 25.5 13 25.5ZM17.4956 8.50435C16.1565 7.16529 13.9855 7.16529 12.6464 8.50435L12.6464 8.50435L11.7835 9.36729C11.5882 9.56255 11.5882 9.87914 11.7835 10.0744C11.9788 10.2697 12.2953 10.2697 12.4906 10.0744L13.3535 9.21147L13.3535 9.21146C14.3021 8.26291 15.84 8.26292 16.7885 9.21147C17.7371 10.16 17.7371 11.6979 16.7885 12.6465L15.9256 13.5094C15.7303 13.7047 15.7303 14.0212 15.9256 14.2165C16.1209 14.4118 16.4374 14.4118 16.6327 14.2165L17.4956 13.3536C18.8347 12.0145 18.8348 9.84342 17.4956 8.50435ZM14.9068 11.8003C15.1021 11.605 15.1021 11.2884 14.9068 11.0932C14.7116 10.8979 14.395 10.8979 14.1997 11.0932L11.0931 14.1998C10.8979 14.395 10.8979 14.7116 11.0931 14.9069C11.2884 15.1021 11.605 15.1021 11.8003 14.9069L14.9068 11.8003ZM10.0743 12.4906C10.2696 12.2954 10.2696 11.9788 10.0743 11.7835C9.87909 11.5883 9.5625 11.5883 9.36724 11.7835L8.5043 12.6465L8.5043 12.6465C7.16523 13.9856 7.16523 16.1566 8.5043 17.4957C9.84337 18.8348 12.0144 18.8348 13.3535 17.4957L14.2165 16.6327C14.4117 16.4375 14.4117 16.1209 14.2165 15.9256C14.0212 15.7304 13.7046 15.7304 13.5093 15.9256L12.6464 16.7886C11.6978 17.7371 10.16 17.7371 9.21141 16.7886C8.26286 15.84 8.26286 14.3022 9.21141 13.3536L9.21141 13.3536L10.0743 12.4906Z" fill="white"/>
</svg>
