<svg width="26" height="26" viewBox="0 0 26 26" fill="none" xmlns="http://www.w3.org/2000/svg">
<path d="M13 0.5C6.09635 0.5 0.5 6.09635 0.5 13C0.5 19.9036 6.09635 25.5 13 25.5C19.9036 25.5 25.5 19.9036 25.5 13C25.5 6.09635 19.9036 0.5 13 0.5ZM17.8073 14.6029C17.8073 14.6029 18.9128 15.694 19.1849 16.2005C19.1927 16.2109 19.1966 16.2214 19.1992 16.2266C19.3099 16.4128 19.3359 16.5573 19.2812 16.6654C19.1901 16.8451 18.8776 16.9336 18.7708 16.9414H16.8177C16.6823 16.9414 16.3984 16.9062 16.0547 16.6693C15.7904 16.4844 15.5299 16.181 15.276 15.8854C14.8971 15.4453 14.569 15.0651 14.2383 15.0651C14.1963 15.065 14.1545 15.0716 14.1146 15.0846C13.8646 15.1654 13.5443 15.5221 13.5443 16.4727C13.5443 16.7695 13.3099 16.9401 13.1445 16.9401H12.25C11.9453 16.9401 10.3581 16.8333 8.95182 15.3503C7.23047 13.5339 5.68099 9.89062 5.66797 9.85677C5.57031 9.62109 5.77213 9.49479 5.99219 9.49479H7.96484C8.22786 9.49479 8.3138 9.65495 8.3737 9.79687C8.44401 9.96224 8.70182 10.6198 9.125 11.3594C9.8112 12.5651 10.2318 13.0547 10.569 13.0547C10.6322 13.0539 10.6944 13.0379 10.75 13.0078C11.1901 12.763 11.1081 11.194 11.0885 10.8685C11.0885 10.8073 11.0872 10.1667 10.862 9.85937C10.7005 9.63672 10.4258 9.55208 10.2591 9.52083C10.3266 9.42775 10.4154 9.35227 10.5182 9.30078C10.8203 9.14974 11.3646 9.1276 11.9049 9.1276H12.2057C12.7917 9.13542 12.9427 9.17318 13.1549 9.22656C13.5846 9.32943 13.5938 9.60677 13.556 10.556C13.5443 10.8255 13.5326 11.1302 13.5326 11.4896C13.5326 11.5677 13.5286 11.651 13.5286 11.7396C13.5156 12.2227 13.5 12.7708 13.8411 12.9961C13.8856 13.024 13.9371 13.0389 13.9896 13.0391C14.1081 13.0391 14.4648 13.0391 15.431 11.3815C15.729 10.848 15.9879 10.2936 16.2057 9.72266C16.2253 9.6888 16.2826 9.58463 16.3503 9.54427C16.4002 9.5188 16.4556 9.50584 16.5117 9.50651H18.8307C19.0833 9.50651 19.2565 9.54427 19.2891 9.64193C19.3464 9.79687 19.2786 10.2695 18.2201 11.7031L17.7474 12.3268C16.7878 13.5846 16.7878 13.6484 17.8073 14.6029Z" fill="white"/>
</svg>
