<svg width="26" height="26" viewBox="0 0 26 26" fill="none" xmlns="http://www.w3.org/2000/svg">
<path d="M25.5 13C25.5 6.0975 19.9025 0.5 13 0.5C6.0975 0.5 0.5 6.0975 0.5 13C0.5 19.9025 6.0975 25.5 13 25.5C13.0734 25.5 13.1465 25.4985 13.2197 25.4971V15.7664H10.5342V12.6367H13.2197V10.3335C13.2197 7.66248 14.8503 6.20869 17.233 6.20869C18.374 6.20869 19.3547 6.29376 19.6406 6.33172V9.12331H17.9976C16.7014 9.12331 16.4504 9.73939 16.4504 10.6433V12.6367H19.5498L19.1459 15.7664H16.4504V25.0171C21.6752 23.5192 25.5 18.7056 25.5 13Z" fill="white"/>
</svg>
