<svg width="26" height="26" viewBox="0 0 26 26" fill="none" xmlns="http://www.w3.org/2000/svg">
<path d="M15.5602 13C15.5602 14.414 14.414 15.5603 13 15.5603C11.586 15.5603 10.4397 14.414 10.4397 13C10.4397 11.586 11.586 10.4398 13 10.4398C14.414 10.4398 15.5602 11.586 15.5602 13Z" fill="white"/>
<path fill-rule="evenodd" clip-rule="evenodd" d="M18.5851 8.77467C18.4703 8.46359 18.2872 8.18202 18.0492 7.9509C17.8181 7.71292 17.5367 7.52978 17.2254 7.41498C16.973 7.31694 16.5937 7.20023 15.8952 7.16844C15.1396 7.13398 14.9131 7.12656 13.0001 7.12656C11.087 7.12656 10.8605 7.13379 10.105 7.16825C9.40654 7.20023 9.02711 7.31694 8.77486 7.41498C8.46359 7.52978 8.18202 7.71292 7.95109 7.9509C7.71311 8.18202 7.52997 8.4634 7.41498 8.77467C7.31694 9.02711 7.20023 9.40654 7.16844 10.105C7.13398 10.8605 7.12656 11.087 7.12656 13.0001C7.12656 14.9131 7.13398 15.1396 7.16844 15.8952C7.20023 16.5937 7.31694 16.973 7.41498 17.2254C7.52997 17.5367 7.71292 17.8181 7.9509 18.0492C8.18202 18.2872 8.4634 18.4703 8.77467 18.5851C9.02711 18.6834 9.40654 18.8001 10.105 18.8318C10.8605 18.8663 11.0868 18.8735 13 18.8735C14.9133 18.8735 15.1398 18.8663 15.8951 18.8318C16.5936 18.8001 16.973 18.6834 17.2254 18.5851C17.8503 18.3441 18.3441 17.8503 18.5851 17.2254C18.6832 16.973 18.7999 16.5937 18.8318 15.8952C18.8663 15.1396 18.8735 14.9131 18.8735 13.0001C18.8735 11.087 18.8663 10.8605 18.8318 10.105C18.8001 9.40654 18.6834 9.02711 18.5851 8.77467ZM13.0001 16.6788C10.9682 16.6788 9.32106 15.0319 9.32106 13C9.32106 10.968 10.9682 9.32106 13.0001 9.32106C15.0319 9.32106 16.679 10.968 16.679 13C16.679 15.0319 15.0319 16.6788 13.0001 16.6788ZM16.8245 10.0354C16.3497 10.0354 15.9647 9.65042 15.9647 9.17561C15.9647 8.7008 16.3497 8.31586 16.8245 8.31586C17.2993 8.31586 17.6842 8.7008 17.6842 9.17561C17.684 9.65042 17.2993 10.0354 16.8245 10.0354Z" fill="white"/>
<path fill-rule="evenodd" clip-rule="evenodd" d="M0.5 13C0.5 6.0975 6.0975 0.5 13 0.5C19.9025 0.5 25.5 6.0975 25.5 13C25.5 19.9025 19.9025 25.5 13 25.5C6.0975 25.5 0.5 19.9025 0.5 13ZM19.8008 17.7016C19.9782 17.245 20.0997 16.7233 20.1344 15.9593C20.1695 15.1938 20.1777 14.9493 20.1777 13C20.1777 11.0507 20.1695 10.8062 20.1346 10.0407C20.0997 9.27666 19.9784 8.755 19.8008 8.29839C19.6208 7.81945 19.3381 7.38572 18.9731 7.02714C18.6145 6.66188 18.1805 6.37921 17.7016 6.19897C17.245 6.02177 16.7233 5.90047 15.9593 5.86575C15.1938 5.83066 14.9493 5.82227 13 5.82227C11.0507 5.82227 10.8062 5.83066 10.0407 5.86556C9.27666 5.90047 8.755 6.02177 8.29839 6.19916C7.81945 6.3794 7.38553 6.66188 7.02714 7.02714C6.66188 7.38553 6.37921 7.81945 6.19897 8.29839C6.02158 8.755 5.90028 9.27666 5.86556 10.0407C5.83047 10.8062 5.82227 11.0507 5.82227 13C5.82227 14.9493 5.83047 15.1938 5.86575 15.9594C5.90047 16.7233 6.02197 17.2452 6.19935 17.7016C6.37959 18.1805 6.66207 18.6145 7.02714 18.9729C7.38572 19.3381 7.81945 19.6206 8.29858 19.8008C8.755 19.9782 9.27686 20.0995 10.0407 20.1344C10.8064 20.1693 11.0507 20.1777 13.0002 20.1777C14.9495 20.1777 15.194 20.1693 15.9594 20.1344C16.7233 20.0995 17.2452 19.9782 17.7016 19.8008C18.6658 19.428 19.428 18.6658 19.8008 17.7016Z" fill="white"/>
</svg>
