<svg width="135" height="13" viewBox="0 0 135 13" fill="none" xmlns="http://www.w3.org/2000/svg">
<path d="M7.59218 4.35362C7.48722 4.35362 7.39392 4.31864 7.31229 4.24866C7.24231 4.16703 7.20733 4.07374 7.20733 3.96878V3.84633C7.20733 3.64808 7.13735 3.48482 6.9974 3.35654C6.86912 3.21659 6.70585 3.14662 6.50759 3.14662H3.09635C2.89809 3.14662 2.73482 3.21659 2.60653 3.35654C2.47825 3.48482 2.4141 3.64808 2.4141 3.84633V9.65391C2.4141 9.85216 2.47825 10.0213 2.60653 10.1612C2.73482 10.2895 2.89809 10.3536 3.09635 10.3536H6.50759C6.70585 10.3536 6.86912 10.2895 6.9974 10.1612C7.13735 10.0213 7.20733 9.85216 7.20733 9.65391V9.53146C7.20733 9.42651 7.24231 9.33904 7.31229 9.26907C7.39392 9.18744 7.48722 9.14662 7.59218 9.14662H9.21908C9.32404 9.14662 9.41151 9.18744 9.48148 9.26907C9.56312 9.33904 9.60394 9.42651 9.60394 9.53146V9.65391C9.60394 10.0854 9.5223 10.4877 9.35903 10.8609C9.19576 11.2341 8.97417 11.5606 8.69427 11.8405C8.41438 12.1204 8.08783 12.342 7.71464 12.5052C7.34144 12.6685 6.93909 12.7501 6.50759 12.7501H3.09635C2.67651 12.7501 2.27416 12.6685 1.8893 12.5052C1.5161 12.342 1.18956 12.1204 0.909663 11.8405C0.629766 11.5606 0.408182 11.2341 0.244909 10.8609C0.0816365 10.4877 0 10.0854 0 9.65391V3.84633C0 3.41485 0.0816365 3.01251 0.244909 2.63934C0.408182 2.26616 0.629766 1.93963 0.909663 1.65974C1.18956 1.37986 1.5161 1.15829 1.8893 0.99502C2.27416 0.831755 2.67651 0.750122 3.09635 0.750122H6.50759C6.93909 0.750122 7.34144 0.831755 7.71464 0.99502C8.08783 1.15829 8.41438 1.37986 8.69427 1.65974C8.97417 1.93963 9.19576 2.26616 9.35903 2.63934C9.5223 3.01251 9.60394 3.41485 9.60394 3.84633V3.96878C9.60394 4.07374 9.56312 4.16703 9.48148 4.24866C9.41151 4.31864 9.32404 4.35362 9.21908 4.35362H7.59218Z" fill="#222222"/>
<path d="M25.1253 12.4003C25.172 12.4936 25.172 12.5752 25.1253 12.6452C25.0787 12.7151 25.0029 12.7501 24.8979 12.7501H23.0261C22.9211 12.7501 22.8162 12.7151 22.7112 12.6452C22.6179 12.5752 22.5479 12.4936 22.5013 12.4003L20.4895 7.95712H18.1104V12.3653C18.1104 12.4702 18.0696 12.5635 17.988 12.6452C17.918 12.7151 17.8305 12.7501 17.7256 12.7501H16.0812C15.9762 12.7501 15.8829 12.7151 15.8013 12.6452C15.7313 12.5635 15.6963 12.4702 15.6963 12.3653V1.13496C15.6963 1.03001 15.7313 0.942542 15.8013 0.872572C15.8829 0.790939 15.9762 0.750122 16.0812 0.750122H22.2039C22.6354 0.750122 23.0378 0.831755 23.411 0.99502C23.7842 1.15829 24.1107 1.37986 24.3906 1.65974C24.6705 1.93963 24.8921 2.26616 25.0554 2.63934C25.2186 3.01251 25.3003 3.41485 25.3003 3.84633V4.86091C25.3003 5.21076 25.2419 5.54896 25.1253 5.87549C25.0204 6.19036 24.8688 6.4819 24.6705 6.75012C24.4722 7.00668 24.2332 7.22826 23.9533 7.41485C23.685 7.60143 23.3876 7.74138 23.0611 7.83467L25.1253 12.4003ZM22.2039 5.56062C22.4022 5.56062 22.5654 5.49648 22.6937 5.3682C22.8337 5.22826 22.9037 5.05916 22.9037 4.86091V3.84633C22.9037 3.64808 22.8337 3.48482 22.6937 3.35654C22.5654 3.21659 22.4022 3.14662 22.2039 3.14662H18.1104V5.56062H22.2039Z" fill="#222222"/>
<path d="M37.9002 0.767615C38.3317 0.767615 38.7341 0.849248 39.1073 1.01251C39.4805 1.17578 39.807 1.39735 40.0869 1.67724C40.3668 1.95712 40.5884 2.28365 40.7517 2.65683C40.9149 3.03001 40.9966 3.42651 40.9966 3.84633V9.6714C40.9966 10.0912 40.9149 10.4877 40.7517 10.8609C40.5884 11.2341 40.3668 11.5606 40.0869 11.8405C39.807 12.1204 39.4805 12.342 39.1073 12.5052C38.7341 12.6685 38.3317 12.7501 37.9002 12.7501H34.489C34.0575 12.7501 33.6551 12.6685 33.2819 12.5052C32.9087 12.342 32.5822 12.1204 32.3023 11.8405C32.0224 11.5606 31.8008 11.2341 31.6376 10.8609C31.4743 10.4877 31.3926 10.0912 31.3926 9.6714V3.84633C31.3926 3.42651 31.4743 3.03001 31.6376 2.65683C31.8008 2.28365 32.0224 1.95712 32.3023 1.67724C32.5822 1.39735 32.9087 1.17578 33.2819 1.01251C33.6551 0.849248 34.0575 0.767615 34.489 0.767615H37.9002ZM38.6 3.84633C38.6 3.64808 38.53 3.48482 38.39 3.35654C38.2618 3.22826 38.0985 3.16412 37.9002 3.16412H34.489C34.2907 3.16412 34.1216 3.22826 33.9817 3.35654C33.8534 3.48482 33.7893 3.64808 33.7893 3.84633V9.6714C33.7893 9.86965 33.8534 10.0329 33.9817 10.1612C34.1216 10.2895 34.2907 10.3536 34.489 10.3536H37.9002C38.0985 10.3536 38.2618 10.2895 38.39 10.1612C38.53 10.0329 38.6 9.86965 38.6 9.6714V3.84633Z" fill="#222222"/>
<path d="M54.6637 4.35362C54.5587 4.35362 54.4654 4.31864 54.3838 4.24866C54.3138 4.16703 54.2788 4.07374 54.2788 3.96878V3.84633C54.2788 3.64808 54.2147 3.48482 54.0864 3.35654C53.9581 3.21659 53.7948 3.14662 53.5966 3.14662H50.1678C49.9812 3.14662 49.818 3.21659 49.678 3.35654C49.5497 3.48482 49.4856 3.64808 49.4856 3.84633V4.86091C49.4856 5.05916 49.5497 5.22826 49.678 5.3682C49.818 5.49648 49.9812 5.56062 50.1678 5.56062H53.5966C54.0164 5.56062 54.4129 5.64225 54.7861 5.80552C55.1593 5.96878 55.4859 6.19036 55.7658 6.47024C56.0457 6.75012 56.2672 7.07665 56.4305 7.44983C56.5938 7.82301 56.6754 8.21951 56.6754 8.63934V9.65391C56.6754 10.0854 56.5938 10.4877 56.4305 10.8609C56.2672 11.2341 56.0457 11.5606 55.7658 11.8405C55.4859 12.1204 55.1593 12.342 54.7861 12.5052C54.4129 12.6685 54.0164 12.7501 53.5966 12.7501H50.1678C49.748 12.7501 49.3515 12.6685 48.9783 12.5052C48.6051 12.342 48.2785 12.1204 47.9986 11.8405C47.7187 11.5606 47.4972 11.2341 47.3339 10.8609C47.1706 10.4877 47.089 10.0854 47.089 9.65391V9.53146C47.089 9.42651 47.124 9.33904 47.1939 9.26907C47.2756 9.18744 47.3689 9.14662 47.4738 9.14662H49.1007C49.2057 9.14662 49.2932 9.18744 49.3631 9.26907C49.4448 9.33904 49.4856 9.42651 49.4856 9.53146V9.65391C49.4856 9.85216 49.5497 10.0213 49.678 10.1612C49.818 10.2895 49.9812 10.3536 50.1678 10.3536H53.5966C53.7948 10.3536 53.9581 10.2895 54.0864 10.1612C54.2147 10.0213 54.2788 9.85216 54.2788 9.65391V8.63934C54.2788 8.44108 54.2147 8.27782 54.0864 8.14954C53.9581 8.02126 53.7948 7.95712 53.5966 7.95712H50.1678C49.748 7.95712 49.3515 7.87549 48.9783 7.71222C48.6051 7.54896 48.2785 7.32738 47.9986 7.0475C47.7187 6.76762 47.4972 6.44108 47.3339 6.06791C47.1706 5.68307 47.089 5.28073 47.089 4.86091V3.84633C47.089 3.41485 47.1706 3.01251 47.3339 2.63934C47.4972 2.26616 47.7187 1.93963 47.9986 1.65974C48.2785 1.37986 48.6051 1.15829 48.9783 0.99502C49.3515 0.831755 49.748 0.750122 50.1678 0.750122H53.5966C54.0164 0.750122 54.4129 0.831755 54.7861 0.99502C55.1593 1.15829 55.4859 1.37986 55.7658 1.65974C56.0457 1.93963 56.2672 2.26616 56.4305 2.63934C56.5938 3.01251 56.6754 3.41485 56.6754 3.84633V3.96878C56.6754 4.07374 56.6404 4.16703 56.5705 4.24866C56.5005 4.31864 56.413 4.35362 56.3081 4.35362H54.6637Z" fill="#222222"/>
<path d="M70.36 4.35362C70.255 4.35362 70.1617 4.31864 70.0801 4.24866C70.0101 4.16703 69.9751 4.07374 69.9751 3.96878V3.84633C69.9751 3.64808 69.911 3.48482 69.7827 3.35654C69.6544 3.21659 69.4911 3.14662 69.2929 3.14662H65.8642C65.6776 3.14662 65.5143 3.21659 65.3743 3.35654C65.246 3.48482 65.1819 3.64808 65.1819 3.84633V4.86091C65.1819 5.05916 65.246 5.22826 65.3743 5.3682C65.5143 5.49648 65.6776 5.56062 65.8642 5.56062H69.2929C69.7127 5.56062 70.1092 5.64225 70.4824 5.80552C70.8556 5.96878 71.1822 6.19036 71.4621 6.47024C71.742 6.75012 71.9636 7.07665 72.1268 7.44983C72.2901 7.82301 72.3717 8.21951 72.3717 8.63934V9.65391C72.3717 10.0854 72.2901 10.4877 72.1268 10.8609C71.9636 11.2341 71.742 11.5606 71.4621 11.8405C71.1822 12.1204 70.8556 12.342 70.4824 12.5052C70.1092 12.6685 69.7127 12.7501 69.2929 12.7501H65.8642C65.4443 12.7501 65.0478 12.6685 64.6746 12.5052C64.3014 12.342 63.9749 12.1204 63.695 11.8405C63.4151 11.5606 63.1935 11.2341 63.0302 10.8609C62.8669 10.4877 62.7853 10.0854 62.7853 9.65391V9.53146C62.7853 9.42651 62.8203 9.33904 62.8903 9.26907C62.9719 9.18744 63.0652 9.14662 63.1702 9.14662H64.7971C64.902 9.14662 64.9895 9.18744 65.0595 9.26907C65.1411 9.33904 65.1819 9.42651 65.1819 9.53146V9.65391C65.1819 9.85216 65.246 10.0213 65.3743 10.1612C65.5143 10.2895 65.6776 10.3536 65.8642 10.3536H69.2929C69.4911 10.3536 69.6544 10.2895 69.7827 10.1612C69.911 10.0213 69.9751 9.85216 69.9751 9.65391V8.63934C69.9751 8.44108 69.911 8.27782 69.7827 8.14954C69.6544 8.02126 69.4911 7.95712 69.2929 7.95712H65.8642C65.4443 7.95712 65.0478 7.87549 64.6746 7.71222C64.3014 7.54896 63.9749 7.32738 63.695 7.0475C63.4151 6.76762 63.1935 6.44108 63.0302 6.06791C62.8669 5.68307 62.7853 5.28073 62.7853 4.86091V3.84633C62.7853 3.41485 62.8669 3.01251 63.0302 2.63934C63.1935 2.26616 63.4151 1.93963 63.695 1.65974C63.9749 1.37986 64.3014 1.15829 64.6746 0.99502C65.0478 0.831755 65.4443 0.750122 65.8642 0.750122H69.2929C69.7127 0.750122 70.1092 0.831755 70.4824 0.99502C70.8556 1.15829 71.1822 1.37986 71.4621 1.65974C71.742 1.93963 71.9636 2.26616 72.1268 2.63934C72.2901 3.01251 72.3717 3.41485 72.3717 3.84633V3.96878C72.3717 4.07374 72.3368 4.16703 72.2668 4.24866C72.1968 4.31864 72.1093 4.35362 72.0044 4.35362H70.36Z" fill="#222222"/>
<path d="M84.9892 0.750122C85.409 0.750122 85.8056 0.831755 86.1788 0.99502C86.552 1.15829 86.8785 1.37986 87.1584 1.65974C87.4383 1.93963 87.6599 2.26616 87.8232 2.63934C87.9864 3.01251 88.0681 3.41485 88.0681 3.84633V4.86091C88.0681 5.22242 88.0098 5.56062 87.8931 5.87549C87.7765 6.19036 87.6191 6.4819 87.4208 6.75012C87.6191 7.01834 87.7765 7.30989 87.8931 7.62476C88.0098 7.93963 88.0681 8.27782 88.0681 8.63934V9.65391C88.0681 10.0854 87.9864 10.4877 87.8232 10.8609C87.6599 11.2341 87.4383 11.5606 87.1584 11.8405C86.8785 12.1204 86.552 12.342 86.1788 12.5052C85.8056 12.6685 85.409 12.7501 84.9892 12.7501H78.849C78.744 12.7501 78.6566 12.7151 78.5866 12.6452C78.5166 12.5635 78.4816 12.4702 78.4816 12.3653V1.13496C78.4816 1.03001 78.5166 0.942542 78.5866 0.872572C78.6566 0.790939 78.744 0.750122 78.849 0.750122H84.9892ZM80.8782 5.54313H84.9892C85.1758 5.54313 85.3332 5.47899 85.4615 5.35071C85.6015 5.22243 85.6715 5.05916 85.6715 4.86091V3.84633C85.6715 3.64808 85.6015 3.48482 85.4615 3.35654C85.3332 3.21659 85.1758 3.14662 84.9892 3.14662H80.8782V5.54313ZM85.6715 8.63934C85.6715 8.44108 85.6015 8.27782 85.4615 8.14954C85.3332 8.02126 85.1758 7.95712 84.9892 7.95712H80.8782V10.3536H84.9892C85.1758 10.3536 85.3332 10.2895 85.4615 10.1612C85.6015 10.0213 85.6715 9.85216 85.6715 9.65391V8.63934Z" fill="#222222"/>
<path d="M100.598 0.750122C100.703 0.750122 100.803 0.785108 100.896 0.855079C101.001 0.92505 101.071 1.00668 101.106 1.09998L103.625 7.36237C103.66 7.45566 103.689 7.57811 103.712 7.72971C103.747 7.86966 103.765 7.99211 103.765 8.09706V12.3653C103.765 12.4702 103.724 12.5635 103.642 12.6452C103.572 12.7151 103.485 12.7501 103.38 12.7501H101.736C101.631 12.7501 101.537 12.7151 101.456 12.6452C101.386 12.5635 101.351 12.4702 101.351 12.3653V10.3536H96.5575V12.3653C96.5575 12.4702 96.5167 12.5635 96.435 12.6452C96.365 12.7151 96.2776 12.7501 96.1726 12.7501H94.5457C94.4408 12.7501 94.3475 12.7151 94.2658 12.6452C94.1958 12.5635 94.1609 12.4702 94.1609 12.3653V8.09706C94.1609 7.99211 94.1725 7.86966 94.1959 7.72971C94.2308 7.57811 94.2658 7.45566 94.3008 7.36237L96.8024 1.09998C96.849 1.00668 96.919 0.92505 97.0123 0.855079C97.1173 0.785108 97.2222 0.750122 97.3272 0.750122H100.598ZM96.6449 7.95712H101.263L99.3389 3.14662H98.5692L96.6449 7.95712Z" fill="#222222"/>
<path d="M118.936 12.7501H110.749C110.644 12.7501 110.551 12.7151 110.469 12.6452C110.399 12.5635 110.365 12.4702 110.365 12.3653V1.13496C110.365 1.03001 110.399 0.942542 110.469 0.872572C110.551 0.790939 110.644 0.750122 110.749 0.750122H112.376C112.481 0.750122 112.569 0.790939 112.639 0.872572C112.72 0.942542 112.761 1.03001 112.761 1.13496V10.3536H118.936C119.041 10.3536 119.129 10.3944 119.199 10.4761C119.269 10.546 119.304 10.6335 119.304 10.7385V12.3653C119.304 12.4702 119.269 12.5635 119.199 12.6452C119.129 12.7151 119.041 12.7501 118.936 12.7501Z" fill="#222222"/>
<path d="M134.633 12.7501H126.446C126.341 12.7501 126.247 12.7151 126.166 12.6452C126.096 12.5635 126.061 12.4702 126.061 12.3653V1.13496C126.061 1.03001 126.096 0.942542 126.166 0.872572C126.247 0.790939 126.341 0.750122 126.446 0.750122H128.073C128.178 0.750122 128.265 0.790939 128.335 0.872572C128.417 0.942542 128.457 1.03001 128.457 1.13496V10.3536H134.633C134.738 10.3536 134.825 10.3944 134.895 10.4761C134.965 10.546 135 10.6335 135 10.7385V12.3653C135 12.4702 134.965 12.5635 134.895 12.6452C134.825 12.7151 134.738 12.7501 134.633 12.7501Z" fill="#222222"/>
</svg>
