<svg width="26" height="26" viewBox="0 0 26 26" fill="none" xmlns="http://www.w3.org/2000/svg">
<path fill-rule="evenodd" clip-rule="evenodd" d="M25.5 13C25.5 19.9031 19.9031 25.5 13 25.5C6.09687 25.5 0.5 19.9031 0.5 13C0.5 6.09687 6.09687 0.5 13 0.5C19.9031 0.5 25.5 6.09687 25.5 13ZM13.4479 9.72812C12.2323 10.2333 9.80208 11.2802 6.15833 12.8677C5.56667 13.1031 5.25625 13.3333 5.22812 13.5583C5.18021 13.9396 5.65729 14.0896 6.30521 14.2927C6.39375 14.3208 6.48542 14.349 6.57917 14.3802C7.21771 14.5875 8.07604 14.8302 8.52188 14.8396C8.92708 14.8479 9.37917 14.6812 9.87813 14.3396C13.2823 12.0406 15.0396 10.8792 15.15 10.8542C15.2281 10.8365 15.3365 10.8135 15.4094 10.8792C15.4823 10.9437 15.475 11.0667 15.4677 11.1C15.4198 11.301 13.551 13.0396 12.5823 13.9396C12.2802 14.2198 12.0667 14.4187 12.0229 14.4646C11.925 14.5656 11.825 14.6625 11.7292 14.7552C11.1354 15.326 10.6917 15.7552 11.7542 16.4552C12.2646 16.7917 12.6729 17.0698 13.0802 17.3469C13.525 17.65 13.9688 17.9521 14.5437 18.3292C14.6896 18.425 14.8292 18.524 14.9656 18.6208C15.4833 18.9906 15.949 19.3219 16.524 19.2698C16.8573 19.2385 17.2031 18.925 17.3781 17.9885C17.7917 15.774 18.6062 10.9781 18.7948 9.00104C18.8063 8.83689 18.7993 8.67197 18.774 8.50937C18.7588 8.37805 18.6949 8.25722 18.5948 8.17083C18.4458 8.04896 18.2146 8.02292 18.1104 8.025C17.6406 8.03333 16.9198 8.28437 13.4479 9.72812Z" fill="white"/>
</svg>
