<svg width="26" height="26" viewBox="0 0 26 26" fill="none" xmlns="http://www.w3.org/2000/svg">
<path d="M15.5943 13.0001L11.349 15.5944V10.4057L15.5943 13.0001Z" fill="white"/>
<path fill-rule="evenodd" clip-rule="evenodd" d="M0.5 13C0.5 6.0975 6.0975 0.5 13 0.5C19.9025 0.5 25.5 6.0975 25.5 13C25.5 19.9025 19.9025 25.5 13 25.5C6.0975 25.5 0.5 19.9025 0.5 13ZM20.489 16.7703C20.8106 15.5478 20.8106 13.0128 20.8106 13.0128C20.8106 13.0128 20.8236 10.4651 20.489 9.24271C20.3088 8.57362 19.7812 8.04585 19.1121 7.8658C17.8897 7.53125 13 7.53125 13 7.53125C13 7.53125 8.11032 7.53125 6.8879 7.85302C6.23158 8.03307 5.69104 8.57362 5.51099 9.24271C5.18922 10.4651 5.18922 13 5.18922 13C5.18922 13 5.18922 15.5478 5.51099 16.7573C5.69123 17.4264 6.2188 17.9541 6.8879 18.1342C8.1231 18.4688 13 18.4688 13 18.4688C13 18.4688 17.8897 18.4688 19.1121 18.147C19.7812 17.9669 20.3088 17.4394 20.489 16.7703Z" fill="white"/>
</svg>
